<?xml version="1.0" encoding="UTF-8" standalone="no"?>
<!-- Created with Inkscape (http://www.inkscape.org/) -->

<svg
   width="96.960892mm"
   height="11.06654mm"
   viewBox="0 0 96.960891 11.06654"
   version="1.1"
   id="svg1"
   inkscape:export-filename="logo.svg"
   inkscape:export-xdpi="96"
   inkscape:export-ydpi="96"
   sodipodi:docname="logo.svg"
   xmlns:inkscape="http://www.inkscape.org/namespaces/inkscape"
   xmlns:sodipodi="http://sodipodi.sourceforge.net/DTD/sodipodi-0.dtd"
   xmlns="http://www.w3.org/2000/svg"
   xmlns:svg="http://www.w3.org/2000/svg">
  <sodipodi:namedview
     id="namedview1"
     pagecolor="#ffffff"
     bordercolor="#000000"
     borderopacity="0.25"
     inkscape:showpageshadow="2"
     inkscape:pageopacity="0.0"
     inkscape:pagecheckerboard="0"
     inkscape:deskcolor="#d1d1d1"
     inkscape:document-units="in"
     showguides="false">
    <inkscape:page
       x="0"
       y="3.9621245e-21"
       width="96.960892"
       height="11.06654"
       id="page1"
       margin="0"
       bleed="0" />
  </sodipodi:namedview>
  <defs
     id="defs1">
    <filter
       inkscape:collect="always"
       style="color-interpolation-filters:sRGB"
       id="filter11"
       x="-0.0044952072"
       y="-0.0049313376"
       width="1.0089904"
       height="1.0098627">
      <feGaussianBlur
         inkscape:collect="always"
         stdDeviation="0.054753386"
         id="feGaussianBlur11" />
    </filter>
  </defs>
  <g
     inkscape:label="Calque 1"
     inkscape:groupmode="layer"
     id="layer1"
     transform="translate(-57.053605,-114.77689)">
    <g
       id="g7"
       inkscape:export-filename="logo.svg"
       inkscape:export-xdpi="96"
       inkscape:export-ydpi="96">
      <path
         d="m 230.94465,438.98759 h -0.27214 l -7.5052,-18.5768 q -0.80208,-1.96224 -1.3177,-2.29166 -0.51563,-0.34375 -1.0599,-0.34375 v -0.21485 h 4.86979 v 0.21485 q -0.64453,-0.043 -0.64453,0.5013 0,0.21484 0.0859,0.45833 l 6.54556,16.25649 6.5026,-16.24217 q 0.1289,-0.32942 0.1289,-0.52994 0,-0.48698 -0.75911,-0.44401 v -0.21485 h 3.16536 v 0.21485 q -0.32942,0 -0.70182,0.10026 -0.35807,0.0859 -0.74479,0.73046 -0.38672,0.64454 -0.40104,0.6875 z m 25.05075,-21.42706 v 0.21485 q -0.41536,-0.043 -0.93099,0.1289 -0.5013,0.17188 -0.60156,0.5013 -0.0859,0.32943 -0.0859,1.5612 v 16.1992 q 0,1.31771 0.10026,1.61849 0.11459,0.28646 0.41537,0.48698 0.3151,0.18619 1.10286,0.18619 v 0.20053 h -5.6289 v -0.20053 q 1.0599,0 1.31771,-0.40104 0.25781,-0.41536 0.25781,-1.86197 v -16.04165 q 0,-1.50391 -0.28646,-1.96224 -0.28645,-0.47265 -1.28906,-0.41536 v -0.21485 z m 19.8229,21.42706 h -0.27214 l -7.5052,-18.5768 q -0.80208,-1.96224 -1.31771,-2.29166 -0.51562,-0.34375 -1.05989,-0.34375 v -0.21485 h 4.86979 v 0.21485 q -0.64454,-0.043 -0.64454,0.5013 0,0.21484 0.0859,0.45833 l 6.54557,16.25649 6.50259,-16.24217 q 0.12891,-0.32942 0.12891,-0.52994 0,-0.48698 -0.75911,-0.44401 v -0.21485 h 3.16536 v 0.21485 q -0.32943,0 -0.70182,0.10026 -0.35808,0.0859 -0.7448,0.73046 -0.38671,0.64454 -0.40104,0.6875 z m 30.67965,-10.04035 h -6.15885 l -3.194,7.97785 q -0.32943,0.85938 -0.32943,1.0599 0,0.47265 0.70182,0.47265 v 0.20053 h -3.13671 v -0.20053 q 0.63021,0 1.05989,-0.30078 0.42969,-0.3151 0.94531,-1.60416 l 7.64843,-19.30727 h 0.35808 l 7.53384,18.64842 q 0,0.14322 0.57292,1.36067 0.58724,1.20312 1.77604,1.20312 v 0.20053 h -4.92708 v -0.20053 q 0.67317,0 0.67317,-0.52994 0,-0.35808 -0.32942,-1.14583 -0.0573,-0.0573 -0.10026,-0.1862 -0.0287,-0.14323 -0.043,-0.14323 z M 300.53962,428.36 h 5.70052 l -2.85026,-7.1901 z m 40.16142,-11.52993 -1.00261,2.54947 h -0.20052 q 0.0573,-0.22916 0.0573,-0.61588 0,-0.32943 -0.24349,-0.41537 -0.22917,-0.10026 -0.7448,-0.10026 h -5.51431 v 18.06118 q 0,1.11719 0.17187,1.53255 0.1862,0.40104 0.48698,0.51562 0.31511,0.10026 1.0026,0.10026 v 0.20053 h -5.71483 v -0.20053 q 1.07422,-0.0716 1.34635,-0.41536 0.27214,-0.34375 0.27214,-1.43229 v -18.36196 h -5.28515 q -0.80209,0 -1.04558,0.10026 -0.24349,0.0859 -0.24349,0.45834 0,0.18619 0.11459,0.57291 h -0.20052 l -1.00261,-2.54947 h 0.20052 q 0.25782,0.51562 0.50131,0.6302 0.25781,0.10026 1.08854,0.10026 h 14.02212 q 0.83072,0 1.1888,-0.10026 0.37239,-0.11458 0.54427,-0.6302 z m 53.42442,1.79036 0.78776,2.23437 h -0.20052 q -3.0651,-3.05078 -7.21874,-3.05078 -4.31119,0 -6.97525,2.5638 -2.64974,2.5638 -2.64974,6.20182 0,2.24869 1.17448,5.17056 1.1888,2.92188 3.73827,4.8125 2.54948,1.8763 6.17317,1.8763 2.37761,0 4.65495,-0.75911 2.29166,-0.77344 3.40885,-2.0625 l 0.18619,0.0573 -1.47525,2.26302 q -3.58073,0.77343 -4.65495,0.91666 -1.05989,0.14323 -2.85025,0.14323 -6.63151,0 -9.49609,-3.0651 -2.85025,-3.07942 -2.85025,-7.36197 0,-2.89323 1.46093,-5.55728 1.47526,-2.67839 4.23958,-4.21094 2.76432,-1.54687 6.3164,-1.54687 1.77604,0 3.0651,0.32943 1.30338,0.3151 2.16276,0.65885 l 0.94531,0.35807 q 0.043,0.0143 0.0573,0.0286 z m 32.64188,20.03774 h -3.98177 v -3.2513 q -3.05077,3.39452 -7.27603,3.39452 -3.13671,0 -4.98437,-1.76171 -1.83333,-1.76172 -1.83333,-4.86979 v -12.6328 q 0,-1.14583 -0.27213,-1.44661 -0.27214,-0.3151 -1.27474,-0.3151 v -0.21485 h 5.60025 v 0.21485 q -0.88802,0 -1.26041,0.28645 -0.35808,0.27214 -0.35808,1.31771 v 11.58723 q 0,3.63801 1.70443,5.19921 1.70442,1.54687 3.8815,1.54687 3.42318,0 6.07291,-3.07942 V 420.3535 q 0,-1.8763 -0.32942,-2.22005 -0.32943,-0.35807 -1.03125,-0.35807 h -0.20052 v -0.21485 h 5.54296 v 0.21485 q -1.03125,0.0573 -1.30338,0.34375 -0.25782,0.28645 -0.25782,1.08854 v 17.18748 q 0,1.01692 0.10026,1.33203 0.10027,0.3151 0.40105,0.52994 0.3151,0.20052 1.05989,0.20052 z m 29.04684,-20.03774 0.78776,2.23437 h -0.20052 q -3.0651,-3.05078 -7.21874,-3.05078 -4.31119,0 -6.97525,2.5638 -2.64974,2.5638 -2.64974,6.20182 0,2.24869 1.17448,5.17056 1.1888,2.92188 3.73827,4.8125 2.54948,1.8763 6.17317,1.8763 2.37761,0 4.65495,-0.75911 2.29166,-0.77344 3.40885,-2.0625 l 0.1862,0.0573 -1.47526,2.26302 q -3.58073,0.77343 -4.65495,0.91666 -1.05989,0.14323 -2.85025,0.14323 -6.63151,0 -9.49609,-3.0651 -2.85025,-3.07942 -2.85025,-7.36197 0,-2.89323 1.46093,-5.55728 1.47526,-2.67839 4.23958,-4.21094 2.76432,-1.54687 6.3164,-1.54687 1.77604,0 3.0651,0.32943 1.30338,0.3151 2.16276,0.65885 l 0.94531,0.35807 q 0.043,0.0143 0.0573,0.0286 z m 32.6419,20.03774 h -3.98177 v -3.2513 q -3.05078,3.39452 -7.27603,3.39452 -3.13672,0 -4.98437,-1.76171 -1.83333,-1.76172 -1.83333,-4.86979 v -12.6328 q 0,-1.14583 -0.27214,-1.44661 -0.27213,-0.3151 -1.27474,-0.3151 v -0.21485 h 5.60026 v 0.21485 q -0.88802,0 -1.26042,0.28645 -0.35807,0.27214 -0.35807,1.31771 v 11.58723 q 0,3.63801 1.70442,5.19921 1.70443,1.54687 3.88151,1.54687 3.42317,0 6.07291,-3.07942 V 420.3535 q 0,-1.8763 -0.32943,-2.22005 -0.32942,-0.35807 -1.03125,-0.35807 h -0.20052 v -0.21485 h 5.54297 v 0.21485 q -1.03125,0.0573 -1.30339,0.34375 -0.25781,0.28645 -0.25781,1.08854 v 17.18748 q 0,1.01692 0.10026,1.33203 0.10026,0.3151 0.40104,0.52994 0.31511,0.20052 1.0599,0.20052 z m 30.17835,-21.09764 h 3.32291 v 0.21485 q -1.67578,0.0859 -1.67578,1.76171 0,0.35808 0.0859,0.98828 l 2.20572,15.98436 q 0.20052,1.20312 0.44401,1.54687 0.25782,0.32943 1.04558,0.40104 v 0.20053 h -4.74088 v -0.20053 q 0.93098,0.0286 0.93098,-0.91666 0,-0.21484 -0.0859,-0.84505 l -2.14844,-15.49738 -7.56249,17.45962 h -0.14323 l -7.60546,-17.43097 -2.13411,15.58331 q -0.0573,0.35807 -0.0573,0.81641 0,0.83072 0.95963,0.83072 v 0.20053 h -3.22265 v -0.20053 q 0.73047,0 0.93099,-0.18619 0.21484,-0.1862 0.32943,-0.57292 0.11458,-0.40104 0.17187,-0.88802 l 2.40625,-17.04425 q -0.58724,-1.41797 -1.17448,-1.70443 -0.58724,-0.28645 -1.13151,-0.28645 v -0.21485 h 3.98177 l 7.41926,17.2591 z m 20.68225,0 v 0.21485 q -0.41536,-0.043 -0.93099,0.1289 -0.5013,0.17188 -0.60156,0.5013 -0.0859,0.32943 -0.0859,1.5612 v 16.1992 q 0,1.31771 0.10026,1.61849 0.11458,0.28646 0.41536,0.48698 0.3151,0.18619 1.10286,0.18619 v 0.20053 h -5.6289 v -0.20053 q 1.0599,0 1.31771,-0.40104 0.25781,-0.41536 0.25781,-1.86197 v -16.04165 q 0,-1.50391 -0.28646,-1.96224 -0.28645,-0.47265 -1.28906,-0.41536 v -0.21485 z m 20.78255,0.27214 1.0026,2.63541 -0.17187,0.0287 q 0,-0.0143 -0.80208,-0.84505 -0.78776,-0.83073 -1.81901,-1.27474 -1.01693,-0.45833 -2.30599,-0.45833 -2.16276,0 -3.4375,1.24609 -1.26041,1.23177 -1.26041,2.97916 0,1.16016 0.58724,2.03385 0.60156,0.85938 2.49218,1.60417 3.2513,1.08854 4.4401,1.64713 1.20313,0.54427 2.30599,1.86198 1.11719,1.31771 1.11719,3.3802 0,0.85938 -0.20053,1.64714 -0.20052,0.77343 -0.64453,1.5039 -0.44401,0.71615 -1.07421,1.31771 -0.61589,0.58724 -1.26042,0.90234 -0.64453,0.30078 -2.03385,0.45833 -1.38932,0.15756 -1.83333,0.15756 h -5.6289 v -6.13021 h 0.21484 q 0.0286,3.05078 1.43229,4.25391 1.40365,1.20312 4.36849,1.20312 2.6927,0 4.08202,-1.27474 1.40365,-1.27474 1.40365,-3.0651 0,-1.08854 -0.48698,-1.84765 -0.48698,-0.77344 -1.36068,-1.34636 -0.87369,-0.58724 -3.30859,-1.41796 -2.42057,-0.84505 -3.40885,-1.47526 -0.97395,-0.64453 -1.63281,-1.91927 -0.65885,-1.28906 -0.65885,-2.62109 0,-2.44922 1.67578,-4.11067 1.6901,-1.66146 4.42577,-1.66146 1.0599,0 2.29167,0.24349 1.23177,0.24349 1.375,0.3151 0.0573,0.0287 0.11458,0.0287 z"
         id="text2"
         style="font-size:29.3333px;font-family:'Felix Titling';-inkscape-font-specification:'Felix Titling, Normal';white-space:pre;fill:#5f8dd3;stroke-width:1.88976;stroke-linecap:round;stroke-linejoin:round"
         transform="matrix(0.26458334,0,0,0.26458334,-0.25831543,6.7162094)"
         aria-label="V I V A T    C U C U M I S" />
      <path
         style="display:inline;opacity:0.928429;fill:#5f8dd3;fill-opacity:1;stroke-width:0.304201;filter:url(#filter11)"
         d="m 86.054912,129.02904 c -7.235344,-1.85866 -10.43012,-7.82385 -8.349141,-15.58927 0.849989,-3.17185 1.388055,-3.56941 3.060647,-2.26143 1.814757,1.41915 6.179955,3.08309 8.08822,3.08309 0.671504,0 0.659903,-0.0454 -0.349267,-1.36751 -5.425278,-7.10749 5.005957,-13.513144 11.955009,-7.34139 1.50671,1.33816 1.67499,1.40807 3.38976,1.40807 2.73148,0 3.22244,1.25513 1.31627,3.36502 -3.17225,3.51131 -8.767274,2.53119 -6.03083,-1.05648 1.01291,-1.32801 0.98549,-1.45038 -0.647141,-2.8875 -5.250484,-4.62165 -12.513457,0.6794 -8.161723,5.95702 2.142421,2.59826 2.078542,2.48331 1.660129,2.98747 -1.007952,1.21452 -6.823405,0.36359 -10.200127,-1.49248 -2.39987,-1.31914 -2.532596,-1.15433 -2.796127,3.47211 -0.420965,7.39017 5.927633,11.78097 14.973561,10.35597 8.033398,-1.26549 10.936718,-6.36936 6.504418,-11.4344 -2.313509,-2.64378 -1.532596,-4.00717 0.91337,-1.59464 8.13918,8.02787 -2.224446,17.7622 -15.327028,14.39635 z M 102.1113,110.50089 c 1.8983,-0.80346 2.28998,-1.62768 0.83927,-1.76603 -1.14765,-0.10946 -1.29336,-0.0343 -1.99842,1.03115 -0.85593,1.29341 -0.5775,1.46993 1.15915,0.73488 z m -7.089918,-1.57199 c -0.574363,-0.69207 0.08324,-1.9683 1.014252,-1.9683 0.955524,0 1.695645,1.28687 1.131239,1.96693 -0.49748,0.59943 -1.64854,0.60016 -2.145491,10e-4 z"
         id="path1"
         inkscape:label="path-ducky"
         transform="matrix(0.13171311,0,0,0.13171311,82.053675,104.60965)" />
      <text
         xml:space="preserve"
         style="font-style:normal;font-variant:normal;font-weight:normal;font-stretch:normal;font-size:2.11667px;font-family:'Felix Titling';-inkscape-font-specification:'Felix Titling, Normal';font-variant-ligatures:normal;font-variant-caps:normal;font-variant-numeric:normal;font-variant-east-asian:normal;writing-mode:lr-tb;direction:ltr;white-space:pre;opacity:0.928429;fill:#5f8dd3;fill-opacity:1;stroke-width:2;stroke-linecap:round;stroke-linejoin:round"
         x="149.71086"
         y="118.58571"
         id="text6"
         inkscape:label="tm"><tspan
           sodipodi:role="line"
           id="tspan6"
           style="font-style:normal;font-variant:normal;font-weight:normal;font-stretch:normal;font-size:2.11667px;font-family:'Felix Titling';-inkscape-font-specification:'Felix Titling, Normal';font-variant-ligatures:normal;font-variant-caps:normal;font-variant-numeric:normal;font-variant-east-asian:normal;fill:#5f8dd3;fill-opacity:1;stroke-width:2"
           x="149.71086"
           y="118.58571">TM</tspan></text>
      <rect
         style="opacity:0.928429;fill:#ffffff;fill-opacity:0;stroke-width:2;stroke-linecap:round;stroke-linejoin:round;filter:url(#filter11)"
         id="rect3"
         width="122.43723"
         height="45.647682"
         x="9.4338531"
         y="-11.259765"
         transform="matrix(0.78486702,0,0,0.2400661,50.08126,117.53402)"
         inkscape:export-filename="logo.svg"
         inkscape:export-xdpi="73.449997"
         inkscape:export-ydpi="73.449997" />
    </g>
  </g>
</svg>
